<?xml version="1.0" encoding="UTF-8"?>
<svg version="1.1" xmlns="http://www.w3.org/2000/svg" width="588" height="273">
<path d="M0 0 C194.04 0 388.08 0 588 0 C588 90.09 588 180.18 588 273 C393.96 273 199.92 273 0 273 C0 182.91 0 92.82 0 0 Z " fill="#FDFDFD" transform="translate(0,0)"/>
<path d="M0 0 C2.75422129 1.41327824 5.48864208 2.83916906 8.19604492 4.34082031 C9.28594727 4.94482666 10.37584961 5.54883301 11.4987793 6.17114258 C12.67014438 6.82510535 13.84136514 7.47932669 15.01245117 8.13378906 C15.60743408 8.46498749 16.20241699 8.79618591 16.81542969 9.13742065 C26.01399228 14.25951545 35.12637807 19.514157 44.15478516 24.93188477 C51.03501282 29.05298484 58.04667016 32.89480246 65.11499023 36.68237305 C67.48036029 37.95109308 69.84043605 39.22922122 72.19995117 40.50878906 C73.00045898 40.93353516 73.8009668 41.35828125 74.62573242 41.79589844 C75.38499023 42.21033203 76.14424805 42.62476563 76.92651367 43.05175781 C77.60536621 43.4168042 78.28421875 43.78185059 78.98364258 44.15795898 C80.57495117 45.32128906 80.57495117 45.32128906 81.57495117 48.32128906 C78.57495117 50.32128906 78.57495117 50.32128906 75.96948242 50.27050781 C71.26242915 48.95426622 67.44246029 46.62729375 63.26245117 44.13378906 C61.38166697 43.03488894 59.50012388 41.93728689 57.61791992 40.84082031 C56.63227051 40.26412598 55.64662109 39.68743164 54.63110352 39.09326172 C49.48059274 36.1069694 44.2762819 33.21784573 39.07495117 30.32128906 C30.97059313 25.7952425 22.88412949 21.23984517 14.82495117 16.63378906 C13.96192383 16.14072266 13.09889648 15.64765625 12.2097168 15.13964844 C11.00605469 14.45032227 11.00605469 14.45032227 9.77807617 13.74707031 C8.66529297 13.11599365 8.66529297 13.11599365 7.5300293 12.47216797 C5.57495117 11.32128906 5.57495117 11.32128906 2.87182617 9.42675781 C-0.33927395 7.88127935 -2.03877178 8.320504 -5.42504883 9.32128906 C-8.38453676 10.79532325 -8.38453676 10.79532325 -11.48754883 12.82128906 C-12.80911429 13.64117939 -14.13217315 14.45866495 -15.45629883 15.27441406 C-16.22071289 15.74685547 -16.98512695 16.21929687 -17.77270508 16.70605469 C-22.67597839 19.6920687 -27.64138781 22.57339216 -32.59884644 25.46820068 C-35.7520852 27.309836 -38.90300302 29.15543239 -42.05395508 31.00097656 C-42.6753688 31.36486481 -43.29678253 31.72875305 -43.93702698 32.10366821 C-49.94111475 35.620863 -55.93503373 39.15518255 -61.92504883 42.69628906 C-62.81973877 43.22512695 -63.71442871 43.75396484 -64.63623047 44.29882812 C-65.46372803 44.78834961 -66.29122559 45.27787109 -67.14379883 45.78222656 C-67.89661133 46.22663086 -68.64942383 46.67103516 -69.42504883 47.12890625 C-71.09338631 48.12355472 -72.74572593 49.14497452 -74.39379883 50.17285156 C-76.42504883 51.32128906 -76.42504883 51.32128906 -78.42504883 51.32128906 C-78.35358643 52.26141846 -78.28212402 53.20154785 -78.20849609 54.17016602 C-77.06506188 71.09229969 -77.31019073 88.05184601 -77.35638428 105.00238037 C-77.36675759 109.22000625 -77.37121141 113.43763839 -77.3762207 117.65527344 C-77.38682961 125.87729551 -77.40381454 134.09928758 -77.42504883 142.32128906 C-76.48347931 142.62722992 -75.54190979 142.93317078 -74.57180786 143.24838257 C-71.73286821 144.21633619 -69.384339 145.31150588 -66.79223633 146.79785156 C-65.91784912 147.29567139 -65.04346191 147.79349121 -64.14257812 148.30639648 C-63.20454346 148.84756104 -62.26650879 149.38872559 -61.30004883 149.94628906 C-59.8088855 150.79767456 -59.8088855 150.79767456 -58.28759766 151.66625977 C-54.99717875 153.54624519 -51.7110899 155.43366352 -48.42504883 157.32128906 C-46.05717778 158.67783968 -43.68846078 160.03290871 -41.31958008 161.38769531 C-40.72512085 161.72770065 -40.13066162 162.06770599 -39.51818848 162.41801453 C-37.71640026 163.44843312 -35.9145027 164.47866018 -34.11254883 165.50878906 C-33.52004333 165.84752045 -32.92753784 166.18625183 -32.31707764 166.5352478 C-21.13733585 172.92570492 -21.13733585 172.92570492 -9.92504883 179.25878906 C-9.20792725 179.66572998 -8.49080566 180.0726709 -7.75195312 180.49194336 C-4.68416465 182.20390756 -1.90752389 183.74730286 1.57495117 184.32128906 C4.11180752 183.1565411 4.11180752 183.1565411 6.82495117 181.25878906 C7.9947197 180.50291498 9.16679245 179.75060035 10.34057617 179.00097656 C11.00508789 178.57526367 11.66959961 178.14955078 12.35424805 177.7109375 C16.69665328 174.99359245 21.1432581 172.45187603 25.57495117 169.88378906 C27.64801751 168.67831725 29.72092856 167.47257836 31.79370117 166.26660156 C32.88166992 165.63399414 33.96963867 165.00138672 35.09057617 164.34960938 C40.78559662 161.03604689 46.47316688 157.70974742 52.15893555 154.38034058 C53.42167344 153.64118919 54.68468784 152.90250996 55.94799805 152.16433716 C64.17059434 147.36828971 64.17059434 147.36828971 72.24291992 142.32519531 C75.57495117 140.32128906 75.57495117 140.32128906 78.38745117 140.32128906 C80.67622892 141.36758746 81.86261988 142.5157363 83.57495117 144.32128906 C82.91825439 144.69713135 82.26155762 145.07297363 81.58496094 145.46020508 C69.34758906 152.47191707 57.14880694 159.53051908 45.07495117 166.82128906 C33.18967531 173.99803934 21.18278907 180.9467508 9.13256836 187.84179688 C6.53644962 189.29605204 6.53644962 189.29605204 4.05639648 191.07421875 C1.57495117 192.32128906 1.57495117 192.32128906 -0.91577148 192.17773438 C-3.6769604 191.23530874 -6.03765211 190.06334201 -8.57348633 188.61816406 C-9.56703125 188.05661621 -10.56057617 187.49506836 -11.58422852 186.91650391 C-13.17605957 186.00312256 -13.17605957 186.00312256 -14.80004883 185.07128906 C-15.90767578 184.44303223 -17.01530273 183.81477539 -18.15649414 183.16748047 C-20.4575409 181.86180827 -22.7570062 180.5533453 -25.05493164 179.2421875 C-28.18123972 177.46025531 -31.3131143 175.68877467 -34.44848633 173.92285156 C-43.85282257 168.62600098 -53.23903989 163.2974948 -62.61254883 157.94628906 C-63.42498047 157.48270996 -64.23741211 157.01913086 -65.07446289 156.54150391 C-66.63127443 155.65130751 -68.17659904 154.74060683 -69.70758057 153.8066864 C-72.40928637 152.2302685 -72.40928637 152.2302685 -75.48181152 151.27415466 C-79.30672094 149.73043869 -81.60161154 148.35856808 -84.42504883 145.32128906 C-86.78109339 138.49537704 -86.03795207 130.74090763 -85.91333008 123.62988281 C-85.91379524 121.4794928 -85.91826531 119.32910026 -85.92655945 117.1787262 C-85.93070773 112.67799301 -85.89311862 108.18013258 -85.82470703 103.67993164 C-85.73948477 97.91617801 -85.74777489 92.15718816 -85.78597736 86.39308071 C-85.80685976 81.95485345 -85.78347196 77.5177245 -85.74620628 73.07963753 C-85.73267674 70.95504025 -85.7316405 68.83032488 -85.74340248 66.70571709 C-85.79212596 50.1619689 -85.79212596 50.1619689 -82.53475952 45.77613831 C-80.19808065 44.18184067 -78.09452357 43.22884386 -75.42504883 42.32128906 C-73.93424805 41.42035522 -73.93424805 41.42035522 -72.41333008 40.5012207 C-71.53032227 39.99969482 -70.64731445 39.49816895 -69.73754883 38.98144531 C-68.72208984 38.40120605 -67.70663086 37.8209668 -66.66040039 37.22314453 C-65.59273437 36.61615723 -64.52506836 36.00916992 -63.42504883 35.38378906 C-54.45174442 30.24578684 -45.53323502 25.03149094 -36.67504883 19.69628906 C-35.14605957 18.78000732 -35.14605957 18.78000732 -33.58618164 17.84521484 C-28.4137083 14.74189551 -23.26504449 11.60615446 -18.14379883 8.41894531 C-16.15424212 7.19884982 -14.16465987 5.97879596 -12.17504883 4.75878906 C-10.80848145 3.89036377 -10.80848145 3.89036377 -9.41430664 3.00439453 C-8.56707031 2.48893066 -7.71983398 1.9734668 -6.84692383 1.44238281 C-5.7423584 0.75293579 -5.7423584 0.75293579 -4.61547852 0.04956055 C-2.42504883 -0.67871094 -2.42504883 -0.67871094 0 0 Z " fill="#1D1D1D" transform="translate(186.425048828125,52.6787109375)"/>
<path d="M0 0 C3.19296677 0.81354226 5.45418953 1.87392119 8.26611328 3.57177734 C9.22654541 4.14355713 10.18697754 4.71533691 11.17651367 5.30444336 C12.19350342 5.9211792 13.21049316 6.53791504 14.25830078 7.17333984 C16.425073 8.46311252 18.59305959 9.7508471 20.76220703 11.03662109 C22.37893311 11.99689209 22.37893311 11.99689209 24.02832031 12.9765625 C28.37127755 15.52469482 32.77241816 17.95581966 37.19580078 20.36083984 C44.67745132 24.44472356 52.13732302 28.56478412 59.57080078 32.73583984 C60.54863525 33.27990479 61.52646973 33.82396973 62.53393555 34.38452148 C67.02203929 36.91028563 71.2489079 39.37578561 75.13330078 42.79833984 C74.14330078 43.29333984 74.14330078 43.29333984 73.13330078 43.79833984 C73.13330078 44.45833984 73.13330078 45.11833984 73.13330078 45.79833984 C69.12381325 45.21039607 66.29018637 43.94897532 62.81689453 41.88427734 C61.80433594 41.28744141 60.79177734 40.69060547 59.74853516 40.07568359 C58.69988281 39.44791016 57.65123047 38.82013672 56.57080078 38.17333984 C55.54921875 37.56876953 54.52763672 36.96419922 53.47509766 36.34130859 C51.406576 35.11716139 49.33944101 33.89066809 47.27368164 32.66186523 C39.76393544 28.20552591 32.24219856 23.80076994 24.53564453 19.69287109 C21.63400493 18.07714755 18.79283374 16.40027465 15.94970703 14.68505859 C15.01570068 14.12971436 14.08169434 13.57437012 13.11938477 13.00219727 C11.23117273 11.87771294 9.35148023 10.73878174 7.48120117 9.5847168 C6.60584717 9.0673999 5.73049316 8.55008301 4.82861328 8.01708984 C4.04502441 7.54207031 3.26143555 7.06705078 2.45410156 6.57763672 C0.12469152 5.55624856 0.12469152 5.55624856 -2.32421875 6.46606445 C-5.01303452 7.87502044 -7.63755792 9.33519817 -10.24169922 10.89599609 C-11.29558838 11.5245752 -12.34947754 12.1531543 -13.43530273 12.80078125 C-13.99371857 13.13603821 -14.5521344 13.47129517 -15.12747192 13.81671143 C-18.12874144 15.61849478 -21.13697451 17.40860146 -24.14404297 19.20068359 C-24.77100571 19.5747937 -25.39796844 19.94890381 -26.04393005 20.33435059 C-33.7553939 24.93232337 -41.50715777 29.46140422 -49.25805664 33.99246216 C-51.00413341 35.01330378 -52.74987345 36.03472128 -54.49560547 37.05615234 C-55.48633057 37.63510254 -56.47705566 38.21405273 -57.49780273 38.81054688 C-58.60953857 39.46651855 -59.72127441 40.12249023 -60.86669922 40.79833984 C-61.71085388 41.10161194 -62.55500854 41.40488403 -63.42474365 41.71734619 C-66.61519838 43.07548039 -68.52638773 44.21698898 -70.86669922 46.79833984 C-72.57786463 52.90018055 -72.61838351 58.96069183 -72.68701172 65.26708984 C-72.72935626 67.1082963 -72.77257325 68.94948289 -72.81661987 70.79064941 C-72.8944849 74.65111482 -72.92904363 78.50940326 -72.93945312 82.37060547 C-72.95651425 86.31448791 -73.05338103 90.24302213 -73.2265625 94.18310547 C-74.99908901 114.92401491 -74.99908901 114.92401491 -68.62380981 133.87905884 C-63.04949393 138.77123741 -56.7549709 141.4289223 -49.78417969 143.77716064 C-45.93992474 145.1227303 -42.76815194 146.95700314 -39.28466797 149.06005859 C-37.20934575 150.20471075 -35.13257083 151.34673392 -33.05419922 152.48583984 C-26.68157799 155.98905296 -20.32186546 159.49556064 -14.07763672 163.22412109 C-13.20083252 163.74594971 -12.32402832 164.26777832 -11.4206543 164.80541992 C-9.80715794 165.77225287 -8.1997468 166.74934496 -6.59985352 167.73852539 C-5.89513916 168.16045166 -5.1904248 168.58237793 -4.46435547 169.01708984 C-3.86115479 169.38769531 -3.2579541 169.75830078 -2.63647461 170.14013672 C-0.32525528 170.99971008 0.84104376 170.62151969 3.13330078 169.79833984 C5.07803386 168.7881267 6.99035984 167.71505539 8.88330078 166.61083984 C9.48053955 166.26408203 10.07777832 165.91732422 10.69311523 165.56005859 C12.06525876 164.76231256 13.43601139 163.96217129 14.80566406 163.16015625 C17.34765181 161.67293078 19.89452667 160.19429896 22.44189453 158.71630859 C33.63979364 152.21097074 44.80233892 145.64636568 55.94580078 139.04833984 C56.53751068 138.69827881 57.12922058 138.34821777 57.73886108 137.98754883 C59.41908952 136.99315245 61.09847883 135.99733861 62.77783203 135.00146484 C63.74052002 134.43073242 64.70320801 133.86 65.69506836 133.27197266 C67.53594846 132.15937105 69.3435759 130.99148976 71.13330078 129.79833984 C73.82080078 130.17333984 73.82080078 130.17333984 76.13330078 130.79833984 C75.77224699 133.30385441 75.52631682 134.4811189 73.52050781 136.10009766 C72.81780762 136.48004883 72.11510742 136.86 71.39111328 137.25146484 C70.18394653 137.92024658 70.18394653 137.92024658 68.95239258 138.60253906 C68.06334229 139.07965332 67.17429199 139.55676758 66.25830078 140.04833984 C64.32860438 141.11628691 62.40028457 142.18672412 60.47314453 143.25927734 C58.92796143 144.11537598 58.92796143 144.11537598 57.3515625 144.98876953 C51.78369049 148.11948318 46.30637067 151.40125245 40.82080078 154.67333984 C38.54243002 156.02666762 36.26378318 157.37953072 33.98486328 158.73193359 C32.8559668 159.40208496 31.72707031 160.07223633 30.56396484 160.76269531 C29.4318457 161.43445801 28.29972656 162.1062207 27.13330078 162.79833984 C26.55962769 163.13875305 25.98595459 163.47916626 25.39489746 163.82989502 C21.49990043 166.13990958 17.59902285 168.43975672 13.69580078 170.73583984 C12.18602661 171.63181885 12.18602661 171.63181885 10.64575195 172.54589844 C9.71480713 173.09197754 8.7838623 173.63805664 7.82470703 174.20068359 C7.01203369 174.68013428 6.19936035 175.15958496 5.36206055 175.65356445 C3.1740557 176.77740657 1.58331638 177.57383042 -0.86669922 177.79833984 C-2.99438477 176.83398438 -2.99438477 176.83398438 -5.31591797 175.30615234 C-9.15927467 172.86670699 -13.02467981 170.55228995 -17.01123047 168.35302734 C-18.08961182 167.75707764 -19.16799316 167.16112793 -20.27905273 166.54711914 C-21.40110107 165.92877197 -22.52314941 165.3104248 -23.67919922 164.67333984 C-32.8905615 159.58178865 -42.07134421 154.44209512 -51.18823242 149.18261719 C-59.69480417 144.28652537 -68.28203733 139.56759645 -76.86669922 134.79833984 C-77.19669922 104.76833984 -77.52669922 74.73833984 -77.86669922 43.79833984 C-70.93669922 39.83833984 -64.00669922 35.87833984 -56.86669922 31.79833984 C-53.35896583 29.74669097 -49.8568231 27.69144079 -46.36669922 25.61083984 C-39.96693264 21.81170406 -33.55927512 18.02671719 -27.13623047 14.26708984 C-26.47642181 13.88082932 -25.81661316 13.49456879 -25.1368103 13.09660339 C-22.50116308 11.55399626 -19.86532165 10.01172555 -17.22851562 8.47109985 C-15.39523478 7.3999335 -13.56257063 6.32771851 -11.72998047 5.25537109 C-10.14117065 4.32688354 -10.14117065 4.32688354 -8.52026367 3.37963867 C-2.54812269 -0.17924965 -2.54812269 -0.17924965 0 0 Z " fill="#EBEBEB" transform="translate(185.86669921875,60.20166015625)"/>
<path d="M0 0 C2.75422129 1.41327824 5.48864208 2.83916906 8.19604492 4.34082031 C9.28594727 4.94482666 10.37584961 5.54883301 11.4987793 6.17114258 C12.67014438 6.82510535 13.84136514 7.47932669 15.01245117 8.13378906 C15.60743408 8.46498749 16.20241699 8.79618591 16.81542969 9.13742065 C26.01399228 14.25951545 35.12637807 19.514157 44.15478516 24.93188477 C51.03501282 29.05298484 58.04667016 32.89480246 65.11499023 36.68237305 C67.48036029 37.95109308 69.84043605 39.22922122 72.19995117 40.50878906 C73.00045898 40.93353516 73.8009668 41.35828125 74.62573242 41.79589844 C75.38499023 42.21033203 76.14424805 42.62476563 76.92651367 43.05175781 C77.60536621 43.4168042 78.28421875 43.78185059 78.98364258 44.15795898 C80.57495117 45.32128906 80.57495117 45.32128906 81.57495117 48.32128906 C78.57495117 50.32128906 78.57495117 50.32128906 75.96948242 50.27050781 C71.26242915 48.95426622 67.44246029 46.62729375 63.26245117 44.13378906 C61.38166697 43.03488894 59.50012388 41.93728689 57.61791992 40.84082031 C56.63227051 40.26412598 55.64662109 39.68743164 54.63110352 39.09326172 C49.48059274 36.1069694 44.2762819 33.21784573 39.07495117 30.32128906 C30.97059313 25.7952425 22.88412949 21.23984517 14.82495117 16.63378906 C13.96192383 16.14072266 13.09889648 15.64765625 12.2097168 15.13964844 C11.00605469 14.45032227 11.00605469 14.45032227 9.77807617 13.74707031 C8.66529297 13.11599365 8.66529297 13.11599365 7.5300293 12.47216797 C5.57495117 11.32128906 5.57495117 11.32128906 2.87182617 9.42675781 C-0.33927395 7.88127935 -2.03877178 8.320504 -5.42504883 9.32128906 C-8.38453676 10.79532325 -8.38453676 10.79532325 -11.48754883 12.82128906 C-12.80911429 13.64117939 -14.13217315 14.45866495 -15.45629883 15.27441406 C-16.22071289 15.74685547 -16.98512695 16.21929687 -17.77270508 16.70605469 C-22.67597839 19.6920687 -27.64138781 22.57339216 -32.59884644 25.46820068 C-35.7520852 27.309836 -38.90300302 29.15543239 -42.05395508 31.00097656 C-42.6753688 31.36486481 -43.29678253 31.72875305 -43.93702698 32.10366821 C-49.94111475 35.620863 -55.93503373 39.15518255 -61.92504883 42.69628906 C-62.81973877 43.22512695 -63.71442871 43.75396484 -64.63623047 44.29882812 C-65.46372803 44.78834961 -66.29122559 45.27787109 -67.14379883 45.78222656 C-67.89661133 46.22663086 -68.64942383 46.67103516 -69.42504883 47.12890625 C-71.09338631 48.12355472 -72.74572593 49.14497452 -74.39379883 50.17285156 C-76.42504883 51.32128906 -76.42504883 51.32128906 -78.42504883 51.32128906 C-78.31785522 52.74018433 -78.31785522 52.74018433 -78.20849609 54.18774414 C-77.08022651 70.95127559 -77.30994603 87.74741649 -77.35638428 104.53881836 C-77.36676007 108.69612107 -77.37121192 112.85343016 -77.3762207 117.01074219 C-77.38682765 125.11427493 -77.40381112 133.21777722 -77.42504883 141.32128906 C-77.75504883 141.32128906 -78.08504883 141.32128906 -78.42504883 141.32128906 C-78.43535629 140.46351364 -78.44566376 139.60573822 -78.45628357 138.7219696 C-78.55420536 130.64367276 -78.65671227 122.56544998 -78.76438808 114.48727703 C-78.81958482 110.33407426 -78.87299965 106.18086441 -78.92236328 102.02758789 C-78.97005474 98.02048917 -79.02239932 94.01347592 -79.07798958 90.00647926 C-79.09839145 88.47667376 -79.11710812 86.94684483 -79.13412285 85.41699791 C-79.15821488 83.27652894 -79.18826275 81.13622113 -79.21972656 78.99584961 C-79.23527084 77.77673386 -79.25081512 76.5576181 -79.26683044 75.30155945 C-79.2956944 72.26686963 -79.2956944 72.26686963 -80.42504883 69.32128906 C-83.31133368 72.20757391 -82.70278522 74.29870115 -82.74389648 78.34130859 C-82.75896492 79.42439301 -82.75896492 79.42439301 -82.77433777 80.52935791 C-82.80527955 82.92093087 -82.82223509 85.31239135 -82.83911133 87.70410156 C-82.85781417 89.36035131 -82.87738691 91.01659145 -82.89779663 92.67282104 C-82.94921737 97.03589215 -82.98878969 101.39899419 -83.02593994 105.76220703 C-83.06591745 110.21296908 -83.11703823 114.66360138 -83.16723633 119.11425781 C-83.26411326 127.84984641 -83.34848015 136.58549898 -83.42504883 145.32128906 C-83.75504883 145.32128906 -84.08504883 145.32128906 -84.42504883 145.32128906 C-84.63362182 132.77800671 -84.79351524 120.23513708 -84.89135838 107.69047356 C-84.93832029 101.86529144 -85.00200958 96.04129596 -85.10400391 90.21679688 C-85.20182945 84.59514854 -85.25561397 78.97464099 -85.27894402 73.35220718 C-85.29556798 71.20784669 -85.32803283 69.06354837 -85.37661934 66.91967392 C-85.44202475 63.91399291 -85.45094956 60.91301696 -85.44677734 57.90673828 C-85.47913483 57.0212883 -85.51149231 56.13583832 -85.54483032 55.22355652 C-85.50593519 52.63173495 -85.3693047 50.7396033 -84.42504883 48.32128906 C-81.70225477 45.7448227 -78.73904649 44.03748763 -75.42504883 42.32128906 C-73.93424805 41.42035522 -73.93424805 41.42035522 -72.41333008 40.5012207 C-71.53032227 39.99969482 -70.64731445 39.49816895 -69.73754883 38.98144531 C-68.72208984 38.40120605 -67.70663086 37.8209668 -66.66040039 37.22314453 C-65.59273437 36.61615723 -64.52506836 36.00916992 -63.42504883 35.38378906 C-54.45174442 30.24578684 -45.53323502 25.03149094 -36.67504883 19.69628906 C-35.14605957 18.78000732 -35.14605957 18.78000732 -33.58618164 17.84521484 C-28.4137083 14.74189551 -23.26504449 11.60615446 -18.14379883 8.41894531 C-16.15424212 7.19884982 -14.16465987 5.97879596 -12.17504883 4.75878906 C-10.80848145 3.89036377 -10.80848145 3.89036377 -9.41430664 3.00439453 C-8.56707031 2.48893066 -7.71983398 1.9734668 -6.84692383 1.44238281 C-5.7423584 0.75293579 -5.7423584 0.75293579 -4.61547852 0.04956055 C-2.42504883 -0.67871094 -2.42504883 -0.67871094 0 0 Z " fill="#212121" transform="translate(186.425048828125,52.6787109375)"/>
<path d="M0 0 C2.375 1.5625 2.375 1.5625 4 4 C4.5625 7.5 4.5625 7.5 4 11 C1.75 13.4375 1.75 13.4375 -1 15 C-2.32 15 -3.64 15 -5 15 C-5.48289522 21.78736062 -5.28822577 25.63971779 -1 31 C-1 31.66 -1 32.32 -1 33 C-0.195625 33.309375 0.60875 33.61875 1.4375 33.9375 C4 35 4 35 5 36 C11.44433273 36.5211591 17.5713143 36.93579713 23 33 C28.45314884 27.24389845 29.36895443 21.62236624 30 14 C28.39125 14.12375 28.39125 14.12375 26.75 14.25 C23 14 23 14 20.5625 12.375 C18.52838664 9.28314769 18.39394571 7.63632575 19 4 C21.09110663 0.94376723 22.29306849 0.13536986 25.9375 -0.5625 C30.15156598 0.21151212 31.38993008 1.62124061 34 5 C34.73006216 8.08063266 34.71374163 11.0337828 34.625 14.1875 C34.60953125 15.03594482 34.5940625 15.88438965 34.578125 16.75854492 C34.31603704 23.32901457 33.3722483 28.84512969 29 34 C26.97773413 35.66266602 24.91070714 37.12306877 22.72265625 38.55859375 C20.0269301 40.81420134 19.76642745 43.6788144 19 47 C16.953125 48.203125 16.953125 48.203125 15 49 C15.32542934 56.02927381 16.51012278 62.22249553 21.421875 67.5390625 C26.65047529 72.14777719 31.44674805 73.60142307 38.30078125 73.4375 C43.30728879 72.62602555 47.20109374 70.29886741 51 67 C55.08216104 61.2806662 56.1697147 55.20877969 56.5625 48.3125 C56.60568359 47.61060547 56.64886719 46.90871094 56.69335938 46.18554688 C56.7991736 44.45724794 56.90006581 42.7286489 57 41 C56.38640625 40.87753906 55.7728125 40.75507813 55.140625 40.62890625 C51.7833072 39.64254099 50.76608365 37.96449755 49 35 C48.38094983 32.1887171 48.34782753 29.80717717 49 27 C51.39838216 23.68458936 53.07059486 22.31639324 56.9375 21 C61.59034673 21 64.55941881 22.60743818 67.875 25.8125 C69.42388547 28.82422174 69.46964169 30.64541648 69 34 C65.99406332 39.68980871 65.99406332 39.68980871 62.859375 40.66796875 C62.24578125 40.77753906 61.6321875 40.88710937 61 41 C61.04640625 41.95519531 61.0928125 42.91039062 61.140625 43.89453125 C61.41019144 53.55078623 61.01494871 62.00844215 54.6875 69.875 C46.62582542 76.24934735 41.54042101 78.85849583 31 78 C24.93132758 76.71895645 20.09331316 73.63354738 16 69 C11.79006151 62.49373142 10.84909871 56.69596559 11 49 C10.360625 48.690625 9.72125 48.38125 9.0625 48.0625 C7 47 7 47 6 46 C5.95919217 44.00041636 5.95745644 41.99954746 6 40 C5.29875 39.9175 4.5975 39.835 3.875 39.75 C-1.50246256 38.34718368 -4.92491674 35.72929837 -7.875 31.0625 C-10.43343088 25.55649179 -10.50247763 20.09417356 -10.5625 14.125 C-10.57716309 13.19695557 -10.59182617 12.26891113 -10.60693359 11.31274414 C-10.50714507 4.71407741 -10.50714507 4.71407741 -8.15234375 1.3984375 C-5.1920384 -0.52495509 -3.46280115 -0.57713352 0 0 Z " fill="#212121" transform="translate(158,106)"/>
<path d="M0 0 C1.47471808 0.69968251 2.92672513 1.44825179 4.359375 2.23046875 C5.6429187 2.92922119 5.6429187 2.92922119 6.95239258 3.64208984 C7.87560303 4.1520752 8.79881348 4.66206055 9.75 5.1875 C10.72155029 5.72068848 11.69310059 6.25387695 12.6940918 6.80322266 C20.79663448 11.27676474 28.79273012 15.92304718 36.77050781 20.61450195 C48.08112795 27.25410484 59.53442046 33.6325085 71 40 C71 40.66 71 41.32 71 42 C66.99051247 41.41205623 64.15688559 40.15063548 60.68359375 38.0859375 C59.67103516 37.48910156 58.65847656 36.89226562 57.61523438 36.27734375 C56.56658203 35.64957031 55.51792969 35.02179688 54.4375 34.375 C53.41591797 33.77042969 52.39433594 33.16585937 51.34179688 32.54296875 C49.27327522 31.31882155 47.20614023 30.09232825 45.14038086 28.86352539 C37.63063466 24.40718606 30.10889778 20.00243009 22.40234375 15.89453125 C19.50070415 14.27880771 16.65953296 12.60193481 13.81640625 10.88671875 C12.8823999 10.33137451 11.94839355 9.77603027 10.98608398 9.20385742 C9.09787195 8.0793731 7.21817945 6.9404419 5.34790039 5.78637695 C4.47254639 5.26906006 3.59719238 4.75174316 2.6953125 4.21875 C1.91172363 3.74373047 1.12813477 3.26871094 0.32080078 2.77929688 C-2.00860927 1.75790871 -2.00860927 1.75790871 -4.45751953 2.66772461 C-7.1463353 4.0766806 -9.7708587 5.53685833 -12.375 7.09765625 C-13.42888916 7.72623535 -14.48277832 8.35481445 -15.56860352 9.00244141 C-16.12701935 9.33769836 -16.68543518 9.67295532 -17.26077271 10.01837158 C-20.26204223 11.82015494 -23.27027529 13.61026162 -26.27734375 15.40234375 C-26.90430649 15.77645386 -27.53126923 16.15056396 -28.17723083 16.53601074 C-35.88869468 21.13398352 -43.64045855 25.66306438 -51.39135742 30.19412231 C-53.13743419 31.21496394 -54.88317423 32.23638144 -56.62890625 33.2578125 C-57.61963135 33.8367627 -58.61035645 34.41571289 -59.63110352 35.01220703 C-60.74283936 35.66817871 -61.8545752 36.32415039 -63 37 C-63.84415466 37.30327209 -64.68830933 37.60654419 -65.55804443 37.91900635 C-68.74849916 39.27714055 -70.65968851 40.41864913 -73 43 C-74.71116541 49.10184071 -74.75168429 55.16235198 -74.8203125 61.46875 C-74.86265704 63.30995646 -74.90587403 65.15114304 -74.94992065 66.99230957 C-75.02778568 70.85277498 -75.06234441 74.71106342 -75.07275391 78.57226562 C-75.08981503 82.51614806 -75.18668181 86.44468229 -75.35986328 90.38476562 C-77.13238979 111.12567507 -77.13238979 111.12567507 -70.7571106 130.08071899 C-65.18279471 134.97289756 -58.88827168 137.63058246 -51.91748047 139.9788208 C-48.07322552 141.32439046 -44.90145272 143.15866329 -41.41796875 145.26171875 C-39.34264653 146.40637091 -37.26587162 147.54839407 -35.1875 148.6875 C-28.81487877 152.19071311 -22.45516625 155.6972208 -16.2109375 159.42578125 C-15.3341333 159.94760986 -14.4573291 160.46943848 -13.55395508 161.00708008 C-11.94045872 161.97391302 -10.33304758 162.95100512 -8.7331543 163.94018555 C-8.02843994 164.36211182 -7.32372559 164.78403809 -6.59765625 165.21875 C-5.99445557 165.58935547 -5.39125488 165.95996094 -4.76977539 166.34179688 C-2.45855606 167.20137024 -1.29225702 166.82317984 1 166 C2.94473308 164.98978686 4.85705906 163.91671555 6.75 162.8125 C7.34723877 162.46574219 7.94447754 162.11898437 8.55981445 161.76171875 C9.93195797 160.96397272 11.30271061 160.16383144 12.67236328 159.36181641 C15.21435103 157.87459093 17.76122589 156.39595911 20.30859375 154.91796875 C31.50649286 148.4126309 42.66903814 141.84802584 53.8125 135.25 C54.4042099 134.89993896 54.9959198 134.54987793 55.6055603 134.18920898 C57.28578874 133.19481261 58.96517805 132.19899877 60.64453125 131.203125 C61.60721924 130.63239258 62.56990723 130.06166016 63.56176758 129.47363281 C65.40264767 128.3610312 67.21027512 127.19314992 69 126 C69.99 126 70.98 126 72 126 C72 126.66 72 127.32 72 128 C70.14599609 129.3059082 70.14599609 129.3059082 67.5234375 130.80078125 C66.55414307 131.35886475 65.58484863 131.91694824 64.58618164 132.49194336 C63.5264917 133.09272705 62.46680176 133.69351074 61.375 134.3125 C59.15200713 135.59056051 56.9293578 136.86921873 54.70703125 138.1484375 C53.57861816 138.79522461 52.45020508 139.44201172 51.28759766 140.10839844 C46.52454509 142.8489399 41.7919192 145.63945295 37.0625 148.4375 C36.18311768 148.95368896 35.30373535 149.46987793 34.39770508 150.00170898 C29.9037944 152.6480196 25.44190589 155.33415647 21.02565002 158.1085968 C19.32263726 159.17723265 17.6150385 160.23814235 15.90600586 161.29711914 C13.72241016 162.65415331 11.54820113 164.02644251 9.38500977 165.41577148 C2.04375338 169.95240917 2.04375338 169.95240917 -2.76953125 170.171875 C-6.55752282 168.79775472 -9.86334188 167.021343 -13.25 164.875 C-14.74788831 163.96007546 -16.24805403 163.04887309 -17.75 162.140625 C-18.99136719 161.38942383 -18.99136719 161.38942383 -20.2578125 160.62304688 C-25.52259017 157.50692847 -30.89290174 154.57853755 -36.25 151.625 C-45.67269641 146.41867499 -55.05600025 141.15292667 -64.37792969 135.76806641 C-65.1671582 135.31351074 -65.95638672 134.85895508 -66.76953125 134.390625 C-67.44604736 133.99907227 -68.12256348 133.60751953 -68.81958008 133.20410156 C-71.5066677 131.72020097 -74.25199752 130.36717066 -77 129 C-77.46506424 117.86566614 -77.8195407 106.7336663 -78.03624344 95.59157181 C-78.14030882 90.4161024 -78.28114037 85.24730824 -78.50878906 80.07568359 C-79.93772002 46.74962647 -79.93772002 46.74962647 -75.15872192 39.02307129 C-70.6177743 34.60908528 -65.44743657 32.50196369 -59.43572998 30.75256348 C-56.20761736 29.75517884 -53.57623215 28.15156323 -50.74609375 26.328125 C-48.97719818 25.30098781 -47.20767399 24.27493238 -45.4375 23.25 C-35.10780636 17.24853904 -24.82430112 11.17175718 -14.55639648 5.06542969 C-13.46786377 4.41864258 -12.37933105 3.77185547 -11.2578125 3.10546875 C-10.2898877 2.52949951 -9.32196289 1.95353027 -8.32470703 1.36010742 C-4.87625299 -0.65746635 -3.81759907 -1.24779415 0 0 Z " fill="#373737" transform="translate(188,64)"/>
<path d="M0 0 C19.15178571 -1.20535714 19.15178571 -1.20535714 24.6875 3.1875 C30.22566023 10.00031616 28.84713777 19.70860308 28.36987305 27.98803711 C28 30 28 30 26 32 C23.38623047 32.22705078 23.38623047 32.22705078 20.1171875 32.1953125 C19.06644043 32.19031738 18.01569336 32.18532227 16.93310547 32.18017578 C15.59393066 32.16196777 14.25475586 32.14375977 12.875 32.125 C8.62625 32.08375 4.3775 32.0425 0 32 C0 21.44 0 10.88 0 0 Z " fill="#191919" transform="translate(460,129)"/>
<path d="M0 0 C6.3421875 -0.0928125 6.3421875 -0.0928125 12.8125 -0.1875 C14.1425708 -0.21481201 15.4726416 -0.24212402 16.84301758 -0.27026367 C17.89126709 -0.27775635 18.9395166 -0.28524902 20.01953125 -0.29296875 C21.09307861 -0.3086792 22.16662598 -0.32438965 23.27270508 -0.34057617 C26 0 26 0 27.85327148 1.27636719 C29.8790188 4.32124179 29.34480098 7.90912589 29.25 11.4375 C29.24484375 12.20126953 29.2396875 12.96503906 29.234375 13.75195312 C29.15561183 19.40813345 29.15561183 19.40813345 28.42480469 22.18774414 C28.28461914 22.78578857 28.14443359 23.38383301 28 24 C28.33 24.33 28.66 24.66 29 25 C29.04092937 27.33297433 29.04241723 29.66705225 29 32 C26.1875 32.3125 26.1875 32.3125 23 32 C21.3125 29.6875 21.3125 29.6875 20 27 C18.24857245 24.73728614 17.35938331 24.07414049 14.51953125 23.48828125 C13.62621094 23.43027344 12.73289062 23.37226563 11.8125 23.3125 C10.91144531 23.24675781 10.01039063 23.18101562 9.08203125 23.11328125 C8.39496094 23.07589844 7.70789063 23.03851563 7 23 C7 25.97 7 28.94 7 32 C4.69 32 2.38 32 0 32 C0 21.44 0 10.88 0 0 Z " fill="#242424" transform="translate(312,129)"/>
<path d="M0 0 C6.3421875 -0.0928125 6.3421875 -0.0928125 12.8125 -0.1875 C14.1425708 -0.21481201 15.4726416 -0.24212402 16.84301758 -0.27026367 C17.89126709 -0.27775635 18.9395166 -0.28524902 20.01953125 -0.29296875 C21.09307861 -0.3086792 22.16662598 -0.32438965 23.27270508 -0.34057617 C26 0 26 0 27.84887695 1.27636719 C29.88519462 4.32544518 29.42849825 7.89769903 29.375 11.4375 C29.38660156 12.20126953 29.39820313 12.96503906 29.41015625 13.75195312 C29.38757296 18.07665352 29.23083772 20.79480385 26 24 C26.99 24.33 27.98 24.66 29 25 C29 27.31 29 29.62 29 32 C26.1875 32.3125 26.1875 32.3125 23 32 C21.3125 29.6875 21.3125 29.6875 20 27 C18.24857245 24.73728614 17.35938331 24.07414049 14.51953125 23.48828125 C13.62621094 23.43027344 12.73289062 23.37226563 11.8125 23.3125 C10.91144531 23.24675781 10.01039063 23.18101562 9.08203125 23.11328125 C8.39496094 23.07589844 7.70789063 23.03851563 7 23 C7 25.97 7 28.94 7 32 C4.69 32 2.38 32 0 32 C0 21.44 0 10.88 0 0 Z " fill="#2A2A2A" transform="translate(492,129)"/>
<path d="M0 0 C1.8125 1.5625 1.8125 1.5625 3 3 C2.34330322 3.37584229 1.68660645 3.75168457 1.01000977 4.13891602 C-11.22736211 11.15062801 -23.42614423 18.20923002 -35.5 25.5 C-47.38527586 32.67675028 -59.3921621 39.62546173 -71.44238281 46.52050781 C-73.21034397 47.54321157 -74.95668755 48.60388019 -76.68383789 49.6940918 C-79 51 -79 51 -81.35546875 50.94140625 C-84.93218284 49.66815943 -88.05901103 47.87753101 -91.3125 45.9375 C-91.95767578 45.56044922 -92.60285156 45.18339844 -93.26757812 44.79492188 C-94.84878152 43.86962507 -96.4249146 42.93567319 -98 42 C-96.1796875 40 -96.1796875 40 -94 38 C-90.03340184 38 -88.16583404 38.88723285 -84.875 41.125 C-82.30415962 43.23760016 -82.30415962 43.23760016 -80.12011719 42.78393555 C-77.62980431 41.86311627 -75.48943453 40.68490464 -73.203125 39.33203125 C-72.25703369 38.77588135 -71.31094238 38.21973145 -70.33618164 37.64672852 C-69.3177417 37.04143311 -68.29930176 36.4361377 -67.25 35.8125 C-65.06651653 34.5258545 -62.88291968 33.2394014 -60.69921875 31.953125 C-59.58337402 31.29376953 -58.4675293 30.63441406 -57.31787109 29.95507812 C-54.20400279 28.12021003 -51.08287447 26.29875105 -47.95703125 24.484375 C-46.98193604 23.9181543 -46.00684082 23.35193359 -45.00219727 22.76855469 C-43.04093787 21.63033688 -41.07918547 20.49296813 -39.11694336 19.35644531 C-33.73529116 16.22571958 -28.40138307 13.02981167 -23.109375 9.75 C-21.96233271 9.0439059 -20.81511756 8.33809251 -19.66772461 7.63256836 C-17.47329126 6.2786718 -15.28622501 4.91274214 -13.10766602 3.53344727 C-11.62544556 2.62163696 -11.62544556 2.62163696 -10.11328125 1.69140625 C-8.81064331 0.87458374 -8.81064331 0.87458374 -7.48168945 0.04125977 C-4.44585617 -1.232506 -3.07366839 -1.11075448 0 0 Z " fill="#222222" transform="translate(267,194)"/>
<path d="M0 0 C1.06669922 0.00322266 2.13339844 0.00644531 3.23242188 0.00976562 C4.29525391 -0.00634766 5.35808594 -0.02246094 6.453125 -0.0390625 C7.98163086 -0.0400293 7.98163086 -0.0400293 9.54101562 -0.04101562 C10.4761499 -0.04399658 11.41128418 -0.04697754 12.37475586 -0.05004883 C14.79492188 0.32226562 14.79492188 0.32226562 16.61157227 1.61450195 C18.51739107 4.36490479 17.97803003 7.08735486 17.79492188 10.32226562 C15.81492187 10.32226562 13.83492188 10.32226562 11.79492188 10.32226562 C11.79492188 9.33226562 11.79492188 8.34226563 11.79492188 7.32226562 C6.51492188 7.32226562 1.23492187 7.32226562 -4.20507812 7.32226562 C-4.20507812 9.30226562 -4.20507812 11.28226563 -4.20507812 13.32226562 C-3.31199951 13.29869995 -3.31199951 13.29869995 -2.40087891 13.2746582 C0.2892919 13.21240762 2.97931144 13.17330779 5.66992188 13.13476562 C6.60707031 13.10962891 7.54421875 13.08449219 8.50976562 13.05859375 C9.40566406 13.04892578 10.3015625 13.03925781 11.22460938 13.02929688 C12.05202637 13.01358643 12.87944336 12.99787598 13.73193359 12.98168945 C14.41271973 13.09407959 15.09350586 13.20646973 15.79492188 13.32226562 C18.25555166 17.01321031 18.06308964 18.99270757 18.04492188 23.38476562 C18.05007813 24.63386719 18.05523437 25.88296875 18.06054688 27.16992188 C17.79492188 30.32226562 17.79492188 30.32226562 15.79492188 32.32226562 C13.39648438 32.58105469 13.39648438 32.58105469 10.41992188 32.58789062 C9.35257812 32.59046875 8.28523438 32.59304687 7.18554688 32.59570312 C5.5071875 32.58410156 5.5071875 32.58410156 3.79492188 32.57226562 C2.67601562 32.58 1.55710937 32.58773437 0.40429688 32.59570312 C-0.66304688 32.593125 -1.73039062 32.59054688 -2.83007812 32.58789062 C-3.81234375 32.58563477 -4.79460937 32.58337891 -5.80664062 32.58105469 C-8.20507812 32.32226562 -8.20507812 32.32226562 -10.20507812 30.32226562 C-10.33007812 26.69726562 -10.33007812 26.69726562 -10.20507812 23.32226562 C-8.22507812 23.32226562 -6.24507813 23.32226562 -4.20507812 23.32226562 C-4.20507812 24.31226563 -4.20507812 25.30226562 -4.20507812 26.32226562 C1.07492187 26.32226562 6.35492188 26.32226562 11.79492188 26.32226562 C11.79492188 24.34226563 11.79492188 22.36226562 11.79492188 20.32226562 C11.19953613 20.33273926 10.60415039 20.34321289 9.99072266 20.35400391 C7.30049845 20.39550512 4.61034151 20.42157267 1.91992188 20.44726562 C0.51419922 20.47240234 0.51419922 20.47240234 -0.91992188 20.49804688 C-2.26376953 20.50771484 -2.26376953 20.50771484 -3.63476562 20.51757812 C-4.46218262 20.52805176 -5.28959961 20.53852539 -6.14208984 20.54931641 C-8.20507812 20.32226562 -8.20507812 20.32226562 -10.20507812 18.32226562 C-10.40359914 15.61303762 -10.4834729 13.02923383 -10.45507812 10.32226562 C-10.4628125 9.58492187 -10.47054688 8.84757813 -10.47851562 8.08789062 C-10.4479207 -0.29511748 -7.36103565 0.05128017 0 0 Z " fill="#232323" transform="translate(389.205078125,128.677734375)"/>
<path d="M0 0 C2.8125 2.5 2.8125 2.5 5 5 C5.495 5.495 5.495 5.495 6 6 C6.4544427 9.90820718 6.10884095 11.79397963 4.25 15.3125 C1.90787656 18.11003633 1.36900686 18.39839163 -2 19 C-1.95359375 19.95519531 -1.9071875 20.91039062 -1.859375 21.89453125 C-1.58980856 31.55078623 -1.98505129 40.00844215 -8.3125 47.875 C-16.34472083 54.22605833 -21.48225127 56.9132177 -32 56 C-35.85788346 55.01636746 -39.13393246 53.86606754 -42 51 C-41.625 48.875 -41.625 48.875 -41 47 C-40.19949219 47.433125 -40.19949219 47.433125 -39.3828125 47.875 C-33.55764739 50.77750442 -28.49239349 52.28856665 -22 51 C-16.48567933 48.82600883 -12.18594842 46.18040829 -9.4375 40.8125 C-7.44465803 35.97818957 -6.73349887 31.50946371 -6.4375 26.3125 C-6.37272461 25.2596582 -6.37272461 25.2596582 -6.30664062 24.18554688 C-6.2008264 22.45724794 -6.09993419 20.7286489 -6 19 C-6.61359375 18.87753906 -7.2271875 18.75507813 -7.859375 18.62890625 C-11.2166928 17.64254099 -12.23391635 15.96449755 -14 13 C-14.61854038 10.19103221 -14.66809095 7.8025849 -14 5 C-9.84841158 -0.27363934 -6.50928829 -1.82260072 0 0 Z " fill="#262626" transform="translate(221,128)"/>
<path d="M0 0 C3.19296677 0.81354226 5.45418953 1.87392119 8.26611328 3.57177734 C9.22654541 4.14355713 10.18697754 4.71533691 11.17651367 5.30444336 C12.19350342 5.9211792 13.21049316 6.53791504 14.25830078 7.17333984 C16.425073 8.46311252 18.59305959 9.7508471 20.76220703 11.03662109 C22.37893311 11.99689209 22.37893311 11.99689209 24.02832031 12.9765625 C28.37127755 15.52469482 32.77241816 17.95581966 37.19580078 20.36083984 C44.67745132 24.44472356 52.13732302 28.56478412 59.57080078 32.73583984 C60.54863525 33.27990479 61.52646973 33.82396973 62.53393555 34.38452148 C67.02203929 36.91028563 71.2489079 39.37578561 75.13330078 42.79833984 C72.65788349 43.71293917 71.51002317 43.94503089 69.01220703 42.97241211 C68.24779297 42.52438232 67.48337891 42.07635254 66.69580078 41.61474609 C65.81504883 41.10733887 64.93429688 40.59993164 64.02685547 40.07714844 C63.07198242 39.5107666 62.11710938 38.94438477 61.13330078 38.36083984 C59.0552126 37.15634924 56.97708586 35.95192515 54.89892578 34.74755859 C53.8 34.1047998 52.70107422 33.46204102 51.56884766 32.79980469 C48.07552725 30.76468241 44.56900261 28.75476691 41.05517578 26.75537109 C40.46398453 26.41874451 39.87279327 26.08211792 39.26368713 25.73529053 C36.87348724 24.37457291 34.48296364 23.01442498 32.09225464 21.65460205 C26.1297547 18.26085434 20.18255361 14.84874298 14.30908203 11.30224609 C13.43606445 10.77969238 12.56304687 10.25713867 11.66357422 9.71875 C10.06944016 8.76081863 8.4822459 7.79119817 6.90380859 6.80761719 C6.20739258 6.3907666 5.51097656 5.97391602 4.79345703 5.54443359 C4.20185791 5.18019287 3.61025879 4.81595215 3.00073242 4.44067383 C0.35627896 3.53107034 -1.20669774 3.9932504 -3.86669922 4.79833984 C-6.42621341 6.02797925 -6.42621341 6.02797925 -9.00732422 7.60693359 C-9.98596436 8.18354736 -10.96460449 8.76016113 -11.97290039 9.35424805 C-13.010354 9.97517334 -14.04780762 10.59609863 -15.11669922 11.23583984 C-16.19862549 11.87545654 -17.28055176 12.51507324 -18.39526367 13.17407227 C-20.56993898 14.46027475 -22.74290381 15.7493741 -24.9140625 17.04150391 C-27.98762517 18.87029148 -31.06803082 20.6867552 -34.15478516 22.49316406 C-35.42910412 23.24301396 -36.69927198 23.99996013 -37.96533203 24.76367188 C-42.02504514 27.19813807 -46.13707741 29.48477156 -50.33015442 31.68330383 C-53.01928359 33.10306672 -55.6864183 34.56167368 -58.35244751 36.02426147 C-59.68271093 36.74186566 -61.02226803 37.44253221 -62.37094116 38.12490845 C-66.60588647 40.27325247 -70.45960282 42.42629315 -73.86669922 45.79833984 C-74.89637335 49.36158205 -75.04739051 52.17694842 -74.82958984 55.86938477 C-74.86669922 58.79833984 -74.86669922 58.79833984 -77.86669922 62.79833984 C-77.86669922 56.52833984 -77.86669922 50.25833984 -77.86669922 43.79833984 C-75.97564453 42.72519531 -75.97564453 42.72519531 -74.04638672 41.63037109 C-63.88184639 35.84943618 -53.76346349 29.99933771 -43.70678711 24.03271484 C-38.19239428 20.76175361 -32.66953577 17.50592237 -27.13623047 14.26708984 C-26.47642181 13.88082932 -25.81661316 13.49456879 -25.1368103 13.09660339 C-22.50116308 11.55399626 -19.86532165 10.01172555 -17.22851562 8.47109985 C-15.39523478 7.3999335 -13.56257063 6.32771851 -11.72998047 5.25537109 C-10.14117065 4.32688354 -10.14117065 4.32688354 -8.52026367 3.37963867 C-2.54812269 -0.17924965 -2.54812269 -0.17924965 0 0 Z " fill="#E4E4E4" transform="translate(185.86669921875,60.20166015625)"/>
<path d="M0 0 C4.42719285 0.42615752 7.61451631 1.61740191 11.45703125 3.80859375 C12.98928345 4.67436035 12.98928345 4.67436035 14.55249023 5.55761719 C15.62829346 6.17797852 16.70409668 6.79833984 17.8125 7.4375 C19.48711304 8.38931152 19.48711304 8.38931152 21.19555664 9.36035156 C28.14259175 13.32036668 35.05730646 17.33616503 41.9230957 21.43554688 C45.57818688 23.61047716 49.26358138 25.70502465 53.00390625 27.73046875 C53.83736572 28.18325195 54.6708252 28.63603516 55.52954102 29.10253906 C57.14141564 29.97354711 58.75763567 30.83657485 60.37866211 31.69042969 C61.45966187 32.2748584 61.45966187 32.2748584 62.5625 32.87109375 C63.20316406 33.21068115 63.84382813 33.55026855 64.50390625 33.90014648 C66 35 66 35 67 38 C64 40 64 40 61.39453125 39.94921875 C56.687505 38.63298471 52.86747062 36.306051 48.6875 33.8125 C46.81583817 32.718795 44.9434083 31.62640357 43.0703125 30.53515625 C42.08579102 29.95910645 41.10126953 29.38305664 40.08691406 28.78955078 C34.78074065 25.7134474 29.42003969 22.73543444 24.0625 19.75 C15.34667685 14.88178031 6.65072698 9.98306634 -2 5 C-1.125 1.125 -1.125 1.125 0 0 Z " fill="#202020" transform="translate(201,63)"/>
<path d="M0 0 C1.47471808 0.69968251 2.92672513 1.44825179 4.359375 2.23046875 C5.6429187 2.92922119 5.6429187 2.92922119 6.95239258 3.64208984 C7.87560303 4.1520752 8.79881348 4.66206055 9.75 5.1875 C10.72155029 5.72068848 11.69310059 6.25387695 12.6940918 6.80322266 C20.79663448 11.27676474 28.79273012 15.92304718 36.77050781 20.61450195 C48.08112795 27.25410484 59.53442046 33.6325085 71 40 C71 40.66 71 41.32 71 42 C66.99051247 41.41205623 64.15688559 40.15063548 60.68359375 38.0859375 C59.67103516 37.48910156 58.65847656 36.89226562 57.61523438 36.27734375 C56.56658203 35.64957031 55.51792969 35.02179688 54.4375 34.375 C53.41591797 33.77042969 52.39433594 33.16585937 51.34179688 32.54296875 C49.27327522 31.31882155 47.20614023 30.09232825 45.14038086 28.86352539 C37.63063466 24.40718606 30.10889778 20.00243009 22.40234375 15.89453125 C19.50070415 14.27880771 16.65953296 12.60193481 13.81640625 10.88671875 C12.8823999 10.33137451 11.94839355 9.77603027 10.98608398 9.20385742 C9.09787195 8.0793731 7.21817945 6.9404419 5.34790039 5.78637695 C4.47254639 5.26906006 3.59719238 4.75174316 2.6953125 4.21875 C1.91172363 3.74373047 1.12813477 3.26871094 0.32080078 2.77929688 C-2.00860927 1.75790871 -2.00860927 1.75790871 -4.45751953 2.66772461 C-7.1463353 4.0766806 -9.7708587 5.53685833 -12.375 7.09765625 C-13.42888916 7.72623535 -14.48277832 8.35481445 -15.56860352 9.00244141 C-16.12701935 9.33769836 -16.68543518 9.67295532 -17.26077271 10.01837158 C-20.26204223 11.82015494 -23.27027529 13.61026162 -26.27734375 15.40234375 C-26.90430649 15.77645386 -27.53126923 16.15056396 -28.17723083 16.53601074 C-35.88869468 21.13398352 -43.64045855 25.66306438 -51.39135742 30.19412231 C-53.13743419 31.21496394 -54.88317423 32.23638144 -56.62890625 33.2578125 C-57.7080127 33.88848633 -58.78711914 34.51916016 -59.89892578 35.16894531 C-63.65756159 37.38826263 -67.37974069 39.66452518 -71.08959961 41.96435547 C-73 43 -73 43 -75 43 C-75 71.05 -75 99.1 -75 128 C-75.33 128 -75.66 128 -76 128 C-76 99.29 -76 70.58 -76 41 C-67.42 36.05 -58.84 31.1 -50 26 C-41.99448802 21.31529299 -34.00894575 16.5989053 -26.03125 11.8671875 C-25.41765121 11.50332443 -24.80405243 11.13946136 -24.17185974 10.76457214 C-21.08403843 8.93344428 -17.99670267 7.10150937 -14.91040039 5.26782227 C-13.78625732 4.60065186 -12.66211426 3.93348145 -11.50390625 3.24609375 C-10.49142822 2.64466553 -9.4789502 2.0432373 -8.43579102 1.42358398 C-3.84799251 -1.25772834 -3.84799251 -1.25772834 0 0 Z " fill="#383838" transform="translate(188,64)"/>
<path d="M0 0 C1.98 0 3.96 0 6 0 C6.07407906 4.23580253 6.12856696 8.47126341 6.16479492 12.70751953 C6.17989483 14.14899258 6.20037658 15.59041959 6.22631836 17.03173828 C6.2626513 19.10200343 6.27971329 21.17166207 6.29296875 23.2421875 C6.3086792 24.4885498 6.32438965 25.73491211 6.34057617 27.01904297 C6.22818604 28.00275879 6.1157959 28.98647461 6 30 C2.68429699 32.21046868 1.60885231 32.25630672 -2.25390625 32.265625 C-3.78241211 32.26949219 -3.78241211 32.26949219 -5.34179688 32.2734375 C-6.40462891 32.26570313 -7.46746094 32.25796875 -8.5625 32.25 C-9.62919922 32.25773437 -10.69589844 32.26546875 -11.79492188 32.2734375 C-13.32149414 32.26957031 -13.32149414 32.26957031 -14.87890625 32.265625 C-15.8129126 32.26336914 -16.74691895 32.26111328 -17.70922852 32.25878906 C-20 32 -20 32 -22 30 C-22.22705078 27.11083984 -22.22705078 27.11083984 -22.1953125 23.4609375 C-22.18564453 21.50800781 -22.18564453 21.50800781 -22.17578125 19.515625 C-22.15906929 18.13541405 -22.14213939 16.75520571 -22.125 15.375 C-22.11497006 13.98698548 -22.10584423 12.59896411 -22.09765625 11.2109375 C-22.07401863 7.80711974 -22.04106867 4.40364494 -22 1 C-20.35 1 -18.7 1 -17 1 C-17 9.25 -17 17.5 -17 26 C-11.39 26 -5.78 26 0 26 C0 17.42 0 8.84 0 0 Z " fill="#1B1B1B" transform="translate(368,129)"/>
<path d="M0 0 C9.57 0 19.14 0 29 0 C29 2.31 29 4.62 29 7 C25.37 7 21.74 7 18 7 C18 15.25 18 23.5 18 32 C15.69 32 13.38 32 11 32 C11 23.75 11 15.5 11 7 C7.37 7 3.74 7 0 7 C0 4.69 0 2.38 0 0 Z " fill="#292929" transform="translate(410,129)"/>
<path d="M0 0 C9.57 0 19.14 0 29 0 C29 2.31 29 4.62 29 7 C25.37 7 21.74 7 18 7 C18 15.25 18 23.5 18 32 C15.69 32 13.38 32 11 32 C11 23.75 11 15.5 11 7 C7.37 7 3.74 7 0 7 C0 4.69 0 2.38 0 0 Z " fill="#2E2E2E" transform="translate(281,129)"/>
<path d="M0 0 C10 0 10 0 13.625 2.6875 C17.43991159 7.8740652 16.37916946 13.87009371 16 20 C10.72 20 5.44 20 0 20 C0 13.4 0 6.8 0 0 Z " fill="#F0F0F0" transform="translate(466,135)"/>
<path d="M0 0 C2.375 1.5625 2.375 1.5625 4 4 C4.5625 7.5 4.5625 7.5 4 11 C1.75 13.4375 1.75 13.4375 -1 15 C-2.32 15 -3.64 15 -5 15 C-5 19.62 -5 24.24 -5 29 C-5.99 29.33 -6.98 29.66 -8 30 C-10.64646728 25.01405564 -10.36747338 19.93569305 -10.375 14.4375 C-10.41173828 13.01920898 -10.41173828 13.01920898 -10.44921875 11.57226562 C-10.47843103 4.68303664 -10.47843103 4.68303664 -8.1640625 1.37890625 C-5.19353109 -0.51386918 -3.45699196 -0.57616533 0 0 Z " fill="#232323" transform="translate(158,106)"/>
<path d="M0 0 C5.14009357 5.14009357 3.10662683 18.97318294 3.11638546 26.23533058 C3.1132324 28.45638474 3.10555834 30.67739561 3.09765625 32.8984375 C3.09578535 34.47026524 3.09436463 36.04209358 3.09336853 37.61392212 C3.0895962 41.7007007 3.07981274 45.78744232 3.06866455 49.87420654 C3.05833515 54.06457011 3.05384651 58.2549398 3.04882812 62.4453125 C3.03818432 70.63022508 3.02117354 78.81510791 3 87 C2.67 87 2.34 87 2 87 C1.98969254 86.14222458 1.97938507 85.28444916 1.96876526 84.40068054 C1.87084347 76.3223837 1.76833655 68.24416092 1.66066074 60.16598797 C1.60546401 56.0127852 1.55204918 51.85957535 1.50268555 47.70629883 C1.45499409 43.6992001 1.40264951 39.69218686 1.34705925 35.6851902 C1.32665737 34.1553847 1.30794071 32.62555577 1.29092598 31.09570885 C1.26683395 28.95523988 1.23678608 26.81493207 1.20532227 24.67456055 C1.18977798 23.45544479 1.1742337 22.23632904 1.15821838 20.98027039 C1.12935443 17.94558057 1.12935443 17.94558057 0 15 C-2.88628485 17.88628485 -2.27773639 19.97741209 -2.31884766 24.02001953 C-2.33391609 25.10310394 -2.33391609 25.10310394 -2.34928894 26.20806885 C-2.38023072 28.59964181 -2.39718626 30.99110229 -2.4140625 33.3828125 C-2.43276534 35.03906225 -2.45233808 36.69530239 -2.4727478 38.35153198 C-2.52416855 42.71460309 -2.56374086 47.07770512 -2.60089111 51.44091797 C-2.64086862 55.89168002 -2.6919894 60.34231232 -2.7421875 64.79296875 C-2.83906443 73.52855734 -2.92343132 82.26420992 -3 91 C-3.33 91 -3.66 91 -4 91 C-4.09263389 79.72576232 -4.1637315 68.45161501 -4.20724869 57.17707443 C-4.22813361 51.94196898 -4.25646796 46.70712368 -4.30175781 41.47216797 C-4.345183 36.42120045 -4.36913029 31.37048334 -4.37950897 26.31934357 C-4.38690631 24.39117744 -4.40135144 22.46302519 -4.42292023 20.53496552 C-4.45191007 17.8364844 -4.45595787 15.13904118 -4.45410156 12.44042969 C-4.46848267 11.64129654 -4.48286377 10.84216339 -4.49768066 10.01881409 C-4.47011966 6.32208101 -4.32369142 4.40334564 -1.97161865 1.47247314 C-1.3209845 0.98655701 -0.67035034 0.50064087 0 0 Z " fill="#4B4B4B" transform="translate(106,107)"/>
<path d="M0 0 C2.31 0 4.62 0 7 0 C7 10.56 7 21.12 7 32 C4.69 32 2.38 32 0 32 C0 21.44 0 10.88 0 0 Z " fill="#313131" transform="translate(253,129)"/>
<path d="M0 0 C2.85437539 2.05314721 4.74895377 3.62666546 5.40063477 7.19165039 C5.49202013 9.74916772 5.43639256 12.25650125 5.3125 14.8125 C5.27866211 16.13797852 5.27866211 16.13797852 5.24414062 17.49023438 C5.18547428 19.6608891 5.09579979 21.8306669 5 24 C3.35 24 1.7 24 0 24 C0.33 20.7 0.66 17.4 1 14 C-0.60875 14.12375 -0.60875 14.12375 -2.25 14.25 C-6 14 -6 14 -8.4375 12.375 C-10.47161336 9.28314769 -10.60605429 7.63632575 -10 4 C-7.2247536 -0.05612936 -4.80517165 -0.88258255 0 0 Z " fill="#2A2A2A" transform="translate(187,106)"/>
<path d="M0 0 C0.99 0.33 1.98 0.66 3 1 C2.97477768 2.03015228 2.94955536 3.06030457 2.92356873 4.12167358 C2.69634168 13.86056244 2.55973657 23.59713795 2.51034451 33.33859825 C2.48207846 38.34674838 2.42264424 43.35036722 2.2902832 48.35693359 C2.1635433 53.19530996 2.12089695 58.02799573 2.13490486 62.867939 C2.12576618 64.70776762 2.08703177 66.54770898 2.01739311 68.38624191 C1.62753871 76.92799578 1.62753871 76.92799578 4 85 C8.713425 89.81226944 14.85823412 92.46579004 21 95 C17.57360985 96.15007124 17.16493239 96.07967563 13.65234375 94.3828125 C12.40664206 93.64255526 11.16851527 92.88943108 9.9375 92.125 C5.15697323 89.18285164 5.15697323 89.18285164 0 87 C0 58.29 0 29.58 0 0 Z " fill="#6F6F6F" transform="translate(111,106)"/>
<path d="M0 0 C2.60364065 3.89862813 2.34087575 8.08331447 2.37109375 12.59765625 C2.38012222 13.42833115 2.3891507 14.25900604 2.39845276 15.11485291 C2.41293429 16.86730351 2.42183678 18.61980792 2.42553711 20.37231445 C2.43747585 23.05706909 2.48671319 25.73955548 2.53710938 28.42382812 C2.54656923 30.12759296 2.55380636 31.83137188 2.55859375 33.53515625 C2.57812607 34.33832779 2.59765839 35.14149933 2.61778259 35.9690094 C2.59936523 38.23461914 2.59936523 38.23461914 2 42 C-0.53491211 44.02905273 -0.53491211 44.02905273 -3 45 C-3.07409532 39.07351426 -3.12857616 33.14729747 -3.16479492 27.22045898 C-3.17989179 25.20380966 -3.20037115 23.18719321 -3.22631836 21.1706543 C-3.26266211 18.27384329 -3.2797172 15.37746594 -3.29296875 12.48046875 C-3.30845261 11.57725388 -3.32393646 10.674039 -3.33988953 9.74345398 C-3.34011612 8.90280899 -3.34034271 8.062164 -3.34057617 7.19604492 C-3.34723801 6.45658127 -3.35389984 5.71711761 -3.36076355 4.95524597 C-2.90396853 2.47953406 -1.89765205 1.58841637 0 0 Z " fill="#141414" transform="translate(106,121)"/>
<path d="M0 0 C-1.38123944 4.14371833 -4.14968265 5.00398276 -7.8125 6.9375 C-15.52810961 11.12533666 -23.04313229 15.59387533 -30.52270508 20.18920898 C-31.33763428 20.68493408 -32.15256348 21.18065918 -32.9921875 21.69140625 C-33.71776855 22.13685791 -34.44334961 22.58230957 -35.19091797 23.04125977 C-37 24 -37 24 -39 24 C-39 52.05 -39 80.1 -39 109 C-39.33 109 -39.66 109 -40 109 C-40 80.29 -40 51.58 -40 22 C-31.42 17.05 -22.84 12.1 -14 7 C-2 0 -2 0 0 0 Z " fill="#2A2A2A" transform="translate(152,83)"/>
<path d="M0 0 C4.95 0 9.9 0 15 0 C15 2.97 15 5.94 15 9 C10.05 9 5.1 9 0 9 C0 6.03 0 3.06 0 0 Z " fill="#FCFCFC" transform="translate(499,136)"/>
<path d="M0 0 C4.95 0 9.9 0 15 0 C15 2.97 15 5.94 15 9 C10.05 9 5.1 9 0 9 C0 6.03 0 3.06 0 0 Z " fill="#FBFBFB" transform="translate(319,136)"/>
<path d="M0 0 C5.94 0 11.88 0 18 0 C18 2.31 18 4.62 18 7 C12.06 7 6.12 7 0 7 C0 4.69 0 2.38 0 0 Z " fill="#2F2F2F" transform="translate(262,161)"/>
<path d="M0 0 C0.33 0 0.66 0 1 0 C1.03738281 0.61488281 1.07476562 1.22976562 1.11328125 1.86328125 C1.17902344 2.67152344 1.24476563 3.47976562 1.3125 4.3125 C1.37050781 5.11300781 1.42851562 5.91351563 1.48828125 6.73828125 C1.8827572 9.41639162 1.8827572 9.41639162 5 12 C5.33 8.04 5.66 4.08 6 0 C6.33 0 6.66 0 7 0 C7 8.25 7 16.5 7 25 C4.69 25 2.38 25 0 25 C0 16.75 0 8.5 0 0 Z " fill="#3A3A3A" transform="translate(421,136)"/>
<path d="M0 0 C3.5625 0.4375 3.5625 0.4375 5.625 2.625 C6.5625 5.4375 6.5625 5.4375 5.8125 8.1875 C4.5625 10.4375 4.5625 10.4375 3.5625 11.4375 C0.125 11.6875 0.125 11.6875 -3.4375 11.4375 C-5.73913882 7.98504176 -5.78240322 6.49011287 -5.4375 2.4375 C-3.4375 0.4375 -3.4375 0.4375 0 0 Z " fill="#F6F6F6" transform="translate(216.4375,131.5625)"/>
<path d="M0 0 C5.61 0 11.22 0 17 0 C17 1.98 17 3.96 17 6 C11.39 6 5.78 6 0 6 C0 4.02 0 2.04 0 0 Z " fill="#1B1B1B" transform="translate(440,161)"/>
<path d="M0 0 C0.33 0 0.66 0 1 0 C1 5.61 1 11.22 1 17 C0.67 17 0.34 17 0 17 C-0.33 14.03 -0.66 11.06 -1 8 C-1.99 8 -2.98 8 -4 8 C-3.34 9.98 -2.68 11.96 -2 14 C-8.27 14 -14.54 14 -21 14 C-21 13.67 -21 13.34 -21 13 C-16.05 13 -11.1 13 -6 13 C-6 10.03 -6 7.06 -6 4 C-10.95 4 -15.9 4 -21 4 C-21 3.67 -21 3.34 -21 3 C-18.37438891 2.91925797 -15.75124324 2.8596377 -13.125 2.8125 C-12.00544922 2.77479492 -12.00544922 2.77479492 -10.86328125 2.73632812 C-8.6953125 2.70703125 -8.6953125 2.70703125 -5 3 C-4.01 4.485 -4.01 4.485 -3 6 C-0.8614515 3.8614515 -0.57344937 2.86724686 0 0 Z " fill="#595959" transform="translate(340,132)"/>
<path d="M0 0 C0.66 0.33 1.32 0.66 2 1 C1.67 1.99 1.34 2.98 1 4 C0.33097656 4.26039062 -0.33804688 4.52078125 -1.02734375 4.7890625 C-1.67832031 5.18867187 -2.32929687 5.58828125 -3 6 C-3.59490496 8.97913312 -3.59490496 8.97913312 -3.5625 12.375 C-3.66188302 17.554609 -3.73897089 18.65196119 -7 23 C-7 16.73 -7 10.46 -7 4 C-4.69 2.68 -2.38 1.36 0 0 Z " fill="#DFDFDF" transform="translate(115,100)"/>
<path d="M0 0 C0 0.66 0 1.32 0 2 C-2.01953125 3.42041016 -2.01953125 3.42041016 -4.8125 5.0390625 C-5.80507812 5.61914062 -6.79765625 6.19921875 -7.8203125 6.796875 C-8.86960938 7.40015625 -9.91890625 8.0034375 -11 8.625 C-12.04929688 9.23601562 -13.09859375 9.84703125 -14.1796875 10.4765625 C-16.78268858 11.99103586 -19.38951889 13.49846843 -22 15 C-22.99 14.34 -23.98 13.68 -25 13 C-24.44014404 12.67725098 -23.88028809 12.35450195 -23.3034668 12.02197266 C-20.76421153 10.55735192 -18.22584745 9.09119347 -15.6875 7.625 C-14.80642578 7.11710938 -13.92535156 6.60921875 -13.01757812 6.0859375 C-12.17001953 5.59609375 -11.32246094 5.10625 -10.44921875 4.6015625 C-9.66893311 4.15119629 -8.88864746 3.70083008 -8.0847168 3.23681641 C-2.62889854 0 -2.62889854 0 0 0 Z " fill="#3F3F3F" transform="translate(260,190)"/>
<path d="M0 0 C-2.5197616 1.58506012 -5.04076562 3.16808381 -7.5625 4.75 C-8.26697266 5.1934375 -8.97144531 5.636875 -9.69726562 6.09375 C-11.79178986 7.40644722 -13.89487623 8.70438612 -16 10 C-16.65468262 10.41443359 -17.30936523 10.82886719 -17.98388672 11.25585938 C-19.60992468 12.25004833 -21.3016659 13.1350882 -23 14 C-23.99 13.67 -24.98 13.34 -26 13 C-20.68277827 9.28638482 -15.21496743 5.84713178 -9.625 2.5625 C-9.01833496 2.19640625 -8.41166992 1.8303125 -7.78662109 1.453125 C-3.34858944 -1.11619648 -3.34858944 -1.11619648 0 0 Z " fill="#323232" transform="translate(237,205)"/>
<path d="M0 0 C0.33 0 0.66 0 1 0 C1 8.58 1 17.16 1 26 C0.67 26 0.34 26 0 26 C-0.33 22.7 -0.66 19.4 -1 16 C-1.66 16.99 -2.32 17.98 -3 19 C-3 13.39 -3 7.78 -3 2 C-2.67 2 -2.34 2 -2 2 C-1.67 3.65 -1.34 5.3 -1 7 C-0.67 4.69 -0.34 2.38 0 0 Z " fill="#EDEDED" transform="translate(344,130)"/>
<path d="M0 0 C6.27 0 12.54 0 19 0 C19 0.33 19 0.66 19 1 C17.94039063 1.04898438 16.88078125 1.09796875 15.7890625 1.1484375 C14.40101503 1.22346709 13.01299549 1.29901485 11.625 1.375 C10.57699219 1.42140625 10.57699219 1.42140625 9.5078125 1.46875 C5.29814173 1.59499498 5.29814173 1.59499498 2 4 C1.62731113 6.91188245 1.62731113 6.91188245 1.5859375 10.3203125 C1.54726563 11.57714844 1.50859375 12.83398438 1.46875 14.12890625 C1.4378125 15.44761719 1.406875 16.76632813 1.375 18.125 C1.33681971 19.46486918 1.29776794 20.80471383 1.2578125 22.14453125 C1.1632797 25.42954619 1.07772844 28.71455138 1 32 C0.67 32 0.34 32 0 32 C0 21.44 0 10.88 0 0 Z " fill="#353535" transform="translate(460,129)"/>
<path d="M0 0 C4.53847198 1.34927545 8.31932246 3.19159348 12.375 5.625 C13.43460937 6.25664063 14.49421875 6.88828125 15.5859375 7.5390625 C16.38257813 8.02117187 17.17921875 8.50328125 18 9 C16.24316406 10.11083984 16.24316406 10.11083984 14 11 C12.07714844 10.40087891 12.07714844 10.40087891 10.109375 9.2265625 C9.40039062 8.8140625 8.69140625 8.4015625 7.9609375 7.9765625 C7.23132813 7.53054687 6.50171875 7.08453125 5.75 6.625 C5.00492188 6.18671875 4.25984375 5.7484375 3.4921875 5.296875 C1.65295875 4.21220164 -0.17468324 3.10792483 -2 2 C-1.34 1.34 -0.68 0.68 0 0 Z " fill="#E0E0E0" transform="translate(243,93)"/>
<path d="M0 0 C0.66 0.33 1.32 0.66 2 1 C0.66043831 5.01868507 -1.90964739 6.12247846 -5.375 8.1875 C-5.96539062 8.55552734 -6.55578125 8.92355469 -7.1640625 9.30273438 C-9.98898773 11.01741309 -11.63751052 12 -15 12 C-14.8359375 10.1953125 -14.8359375 10.1953125 -14 8 C-11.6015625 6.3671875 -11.6015625 6.3671875 -8.625 4.875 C-5.61935357 3.34442015 -2.81014716 1.87343144 0 0 Z " fill="#DBDBDB" transform="translate(200,226)"/>
<path d="M0 0 C4.85963179 0.60745397 8.7405518 2.72758967 13 5 C12.01 5.99 11.02 6.98 10 8 C6.37 6.02 2.74 4.04 -1 2 C-0.67 1.34 -0.34 0.68 0 0 Z " fill="#E1E1E1" transform="translate(110,193)"/>
<path d="M0 0 C1.98 0 3.96 0 6 0 C6 1.98 6 3.96 6 6 C4.02 6 2.04 6 0 6 C0 4.02 0 2.04 0 0 Z " fill="#191919" transform="translate(525,155)"/>
<path d="M0 0 C2.125 0.375 2.125 0.375 4 1 C4.5625 2.9375 4.5625 2.9375 5 5 C4 6 4 6 1.4375 6.0625 C0.2309375 6.0315625 0.2309375 6.0315625 -1 6 C-1.625 4.125 -1.625 4.125 -2 2 C-1.34 1.34 -0.68 0.68 0 0 Z " fill="#F0F0F0" transform="translate(183,110)"/>
<path d="M0 0 C1.67542976 0.28604898 3.34385343 0.61781233 5 1 C4.67 2.65 4.34 4.3 4 6 C2.68 6 1.36 6 0 6 C-0.38218767 4.34385343 -0.71395102 2.67542976 -1 1 C-0.67 0.67 -0.34 0.34 0 0 Z " fill="#F0F0F0" transform="translate(153,110)"/>
<path d="M0 0 C0.66 0.33 1.32 0.66 2 1 C0.52440331 5.42679007 -1.90057368 5.91432696 -6 8 C-6.66 8 -7.32 8 -8 8 C-8.33 7.01 -8.66 6.02 -9 5 C-7.54735962 4.1361871 -6.0876837 3.28419546 -4.625 2.4375 C-3.40683594 1.72400391 -3.40683594 1.72400391 -2.1640625 0.99609375 C-1.44992188 0.66738281 -0.73578125 0.33867188 0 0 Z " fill="#DADADA" transform="translate(151,79)"/>
<path d="M0 0 C4.50802601 1.25805377 7.4912812 2.90407165 11 6 C10.34 6.66 9.68 7.32 9 8 C5.7 6.02 2.4 4.04 -1 2 C-0.67 1.34 -0.34 0.68 0 0 Z " fill="#E9E9E9" transform="translate(175,229)"/>
<path d="M0 0 C1.65 0 3.3 0 5 0 C4.2733313 0.58454956 4.2733313 0.58454956 3.53198242 1.1809082 C1.52326272 3.56608279 1.57763018 5.01399593 1.48828125 8.10546875 C1.45283203 9.08837891 1.41738281 10.07128906 1.38085938 11.08398438 C1.35830078 12.10814453 1.33574219 13.13230469 1.3125 14.1875 C1.27833984 15.22326172 1.24417969 16.25902344 1.20898438 17.32617188 C1.12647358 19.8840066 1.05733428 22.44149723 1 25 C0.67 25 0.34 25 0 25 C0 16.75 0 8.5 0 0 Z " fill="#1F1F1F" transform="translate(368,130)"/>
<path d="M0 0 C0.99 0 1.98 0 3 0 C3 2.97 3 5.94 3 9 C1.68 8.67 0.36 8.34 -1 8 C-0.67 5.36 -0.34 2.72 0 0 Z " fill="#1B1B1B" transform="translate(188,121)"/>
<path d="M0 0 C0.66 0.66 1.32 1.32 2 2 C1 5 1 5 -0.875 6.1875 C-3 7 -3 7 -6 7 C-5.67 6.01 -5.34 5.02 -5 4 C-2.4375 2.8125 -2.4375 2.8125 0 2 C0 1.34 0 0.68 0 0 Z " fill="#E4E4E4" transform="translate(260,190)"/>
<path d="M0 0 C0.66 0.33 1.32 0.66 2 1 C1 4 1 4 -1.375 5.75 C-4 7 -4 7 -7 6 C-4.74259377 3.66475218 -2.7194239 1.81294927 0 0 Z " fill="#E3E3E3" transform="translate(207,222)"/>
<path d="M0 0 C1.98 0 3.96 0 6 0 C6 1.32 6 2.64 6 4 C4.02 4 2.04 4 0 4 C0 2.68 0 1.36 0 0 Z " fill="#E4E4E4" transform="translate(168,147)"/>
<path d="M0 0 C5.75 1.75 5.75 1.75 8 4 C7.01 4.66 6.02 5.32 5 6 C1.535 4.02 1.535 4.02 -2 2 C-1.34 1.34 -0.68 0.68 0 0 Z " fill="#DFDFDF" transform="translate(220,80)"/>
<path d="M0 0 C0.66 0.33 1.32 0.66 2 1 C0.515 3.475 0.515 3.475 -1 6 C-2.65 5.67 -4.3 5.34 -6 5 C-4.06745228 2.9754262 -2.36841312 1.57894208 0 0 Z " fill="#E6E6E6" transform="translate(174,71)"/>
<path d="M0 0 C2.875 0.3125 2.875 0.3125 6 1 C6.66 1.99 7.32 2.98 8 4 C5.03 3.67 2.06 3.34 -1 3 C-0.67 2.01 -0.34 1.02 0 0 Z " fill="#E9E9E9" transform="translate(183,60)"/>
<path d="M0 0 C0.99 0.66 1.98 1.32 3 2 C-0.96 3.98 -0.96 3.98 -5 6 C-5.66 5.34 -6.32 4.68 -7 4 C-4.69 2.68 -2.38 1.36 0 0 Z " fill="#484848" transform="translate(210,218)"/>
<path d="M0 0 C0 0.66 0 1.32 0 2 C-2.3125 3.6875 -2.3125 3.6875 -5 5 C-5.99 4.67 -6.98 4.34 -8 4 C-4.5 0 -4.5 0 0 0 Z " fill="#E6E6E6" transform="translate(160,76)"/>
<path d="M0 0 C0.99 1.32 1.98 2.64 3 4 C2.01 5.32 1.02 6.64 0 8 C-1.125 5.6875 -1.125 5.6875 -2 3 C-1.34 2.01 -0.68 1.02 0 0 Z " fill="#343434" transform="translate(153,133)"/>
<path d="M0 0 C5.75 1.75 5.75 1.75 8 4 C5 5 5 5 2.3125 3.6875 C1.549375 3.130625 0.78625 2.57375 0 2 C0 1.34 0 0.68 0 0 Z " fill="#393939" transform="translate(114,192)"/>
</svg>
